<svg width="20" height="20" viewBox="0 0 20 20" fill="none" xmlns="http://www.w3.org/2000/svg">
<path d="M6.5 13C6.76522 13 7.01957 13.1054 7.20711 13.2929C7.39464 13.4804 7.5 13.7348 7.5 14C7.5 14.2652 7.39464 14.5196 7.20711 14.7071C7.01957 14.8946 6.76522 15 6.5 15C6.23478 15 5.98043 14.8946 5.79289 14.7071C5.60536 14.5196 5.5 14.2652 5.5 14C5.5 13.7348 5.60536 13.4804 5.79289 13.2929C5.98043 13.1054 6.23478 13 6.5 13ZM5 7H15V12H5V7ZM13.5 13C13.7652 13 14.0196 13.1054 14.2071 13.2929C14.3946 13.4804 14.5 13.7348 14.5 14C14.5 14.2652 14.3946 14.5196 14.2071 14.7071C14.0196 14.8946 13.7652 15 13.5 15C13.2348 15 12.9804 14.8946 12.7929 14.7071C12.6054 14.5196 12.5 14.2652 12.5 14C12.5 13.7348 12.6054 13.4804 12.7929 13.2929C12.9804 13.1054 13.2348 13 13.5 13ZM16 13.88V7C16 4.38 13.32 4 10 4C7 4 4 4.37 4 7V13.88C4 14.5749 4.27603 15.2413 4.76738 15.7326C5.25873 16.224 5.92513 16.5 6.62 16.5L5.5 17.62V18H7.17L8.67 16.5H11.5L13 18H14.5V17.62L13.37 16.5C14.82 16.5 16 15.33 16 13.88ZM15.8 0.8C18.47 1.84 20 4.05 20 6.86V20H0V6.86C0 4.05 1.53 1.84 4.2 0.8C6 0.09 8.14 0 10 0C11.86 0 14 0.09 15.8 0.8Z" fill="#979797"/>
</svg>
